<svg width="22" height="30" viewBox="0 0 22 30" fill="none" xmlns="http://www.w3.org/2000/svg">
<path d="M0.875 0.93762C4.60232 0.945053 8.17486 2.42902 10.8105 5.06464C13.4461 7.70026 14.9301 11.2728 14.9375 15.0001L14.9375 27.1361L20.7312 21.3564C20.7824 21.3036 20.8436 21.2617 20.9112 21.2331C20.9789 21.2045 21.0516 21.1897 21.125 21.1897C21.1984 21.1897 21.2711 21.2045 21.3388 21.2331C21.4064 21.2617 21.4676 21.3036 21.5188 21.3564C21.5715 21.4075 21.6134 21.4687 21.642 21.5363C21.6707 21.604 21.6854 21.6767 21.6854 21.7501C21.6854 21.8236 21.6707 21.8963 21.642 21.9639C21.6134 22.0315 21.5715 22.0927 21.5188 22.1439L14.7688 28.8939C14.7176 28.9466 14.6564 28.9885 14.5888 29.0172C14.5211 29.0458 14.4484 29.0605 14.375 29.0605C14.3016 29.0605 14.2289 29.0458 14.1612 29.0172C14.0936 28.9885 14.0324 28.9466 13.9812 28.8939L7.23125 22.1439C7.15001 22.0356 7.11057 21.9016 7.12017 21.7665C7.12976 21.6314 7.18776 21.5044 7.2835 21.4086C7.37925 21.3129 7.50631 21.2549 7.64138 21.2453C7.77644 21.2357 7.91043 21.2751 8.01875 21.3564L13.8125 27.1361L13.8125 15.0001C13.8088 11.57 12.4445 8.28148 10.0191 5.85604C7.59364 3.43059 4.3051 2.06634 0.875 2.06262C0.725816 2.06262 0.582742 2.00336 0.477253 1.89787C0.371763 1.79238 0.3125 1.64931 0.3125 1.50012C0.3125 1.35094 0.371763 1.20786 0.477253 1.10237C0.582742 0.996883 0.725816 0.93762 0.875 0.93762Z" fill="#553E3E"/>
</svg>
