<svg width="22" height="30" viewBox="0 0 22 30" fill="none" xmlns="http://www.w3.org/2000/svg">
<path d="M21.125 29.0624C17.3977 29.0549 13.8251 27.571 11.1895 24.9354C8.5539 22.2997 7.06993 18.7272 7.0625 14.9999L7.0625 2.86394L1.26875 8.64363C1.21762 8.69636 1.15643 8.73828 1.08879 8.76691C1.02115 8.79555 0.948448 8.8103 0.875 8.8103C0.801552 8.8103 0.728851 8.79555 0.661213 8.76691C0.593575 8.73828 0.532377 8.69636 0.481249 8.64363C0.428518 8.5925 0.386593 8.5313 0.357962 8.46366C0.329332 8.39602 0.314577 8.32332 0.314577 8.24988C0.314577 8.17643 0.329332 8.10373 0.357962 8.03609C0.386593 7.96845 0.428518 7.90725 0.481249 7.85613L7.23125 1.10613C7.28238 1.05339 7.34357 1.01147 7.41121 0.982837C7.47885 0.954206 7.55155 0.939453 7.625 0.939453C7.69845 0.939453 7.77115 0.954206 7.83879 0.982837C7.90643 1.01147 7.96762 1.05339 8.01875 1.10613L14.7688 7.85613C14.85 7.96445 14.8894 8.09844 14.8798 8.2335C14.8702 8.36856 14.8122 8.49563 14.7165 8.59137C14.6208 8.68712 14.4937 8.74511 14.3586 8.75471C14.2236 8.76431 14.0896 8.72487 13.9812 8.64363L8.1875 2.86394L8.1875 14.9999C8.19122 18.43 9.55547 21.7185 11.9809 24.144C14.4064 26.5694 17.6949 27.9337 21.125 27.9374C21.2742 27.9374 21.4173 27.9966 21.5227 28.1021C21.6282 28.2076 21.6875 28.3507 21.6875 28.4999C21.6875 28.6491 21.6282 28.7921 21.5227 28.8976C21.4173 29.0031 21.2742 29.0624 21.125 29.0624Z" fill="#553E3E"/>
</svg>
