<svg width="52" height="52" viewBox="0 0 52 52" fill="none" xmlns="http://www.w3.org/2000/svg">
<path d="M46.0687 31.4438L36.3187 41.1938C36.2449 41.2699 36.1565 41.3305 36.0588 41.3718C35.9611 41.4132 35.8561 41.4345 35.75 41.4345C35.6439 41.4345 35.5389 41.4132 35.4412 41.3718C35.3435 41.3305 35.2551 41.2699 35.1812 41.1938C35.1051 41.1199 35.0445 41.0315 35.0032 40.9338C34.9618 40.8361 34.9405 40.7311 34.9405 40.625C34.9405 40.5189 34.9618 40.4139 35.0032 40.3162C35.0445 40.2185 35.1051 40.1301 35.1812 40.0562L43.5297 31.6875H26C20.6161 31.6768 15.4558 29.5333 11.6488 25.7262C7.84174 21.9192 5.69824 16.7589 5.6875 11.375C5.6875 11.1595 5.7731 10.9528 5.92548 10.8005C6.07785 10.6481 6.28451 10.5625 6.5 10.5625C6.71549 10.5625 6.92215 10.6481 7.07452 10.8005C7.2269 10.9528 7.3125 11.1595 7.3125 11.375C7.31788 16.3296 9.28846 21.0797 12.7919 24.5831C16.2953 28.0865 21.0454 30.0571 26 30.0625H43.5297L35.1812 21.6938C35.0639 21.5373 35.0069 21.3437 35.0208 21.1487C35.0347 20.9536 35.1184 20.77 35.2567 20.6317C35.395 20.4934 35.5786 20.4097 35.7736 20.3958C35.9687 20.3819 36.1623 20.4389 36.3187 20.5562L46.0687 30.3062C46.1449 30.3801 46.2055 30.4685 46.2468 30.5662C46.2882 30.6639 46.3095 30.7689 46.3095 30.875C46.3095 30.9811 46.2882 31.0861 46.2468 31.1838C46.2055 31.2815 46.1449 31.3699 46.0687 31.4438Z" fill="#895F5F"/>
</svg>
