<svg width="52" height="52" viewBox="0 0 52 52" fill="none" xmlns="http://www.w3.org/2000/svg">
<path d="M46.3126 11.375C46.3018 16.7589 44.1583 21.9192 40.3513 25.7262C36.5443 29.5333 31.384 31.6768 26.0001 31.6875H8.47036L16.8188 40.0562C16.895 40.1301 16.9555 40.2185 16.9969 40.3162C17.0382 40.4139 17.0595 40.5189 17.0595 40.625C17.0595 40.7311 17.0382 40.8361 16.9969 40.9338C16.9555 41.0315 16.895 41.1199 16.8188 41.1938C16.745 41.2699 16.6566 41.3305 16.5589 41.3718C16.4612 41.4132 16.3561 41.4345 16.2501 41.4345C16.144 41.4345 16.0389 41.4132 15.9412 41.3718C15.8435 41.3305 15.7552 41.2699 15.6813 41.1938L5.9313 31.4438C5.85513 31.3699 5.79457 31.2815 5.75322 31.1838C5.71186 31.0861 5.69055 30.9811 5.69055 30.875C5.69055 30.7689 5.71186 30.6639 5.75322 30.5662C5.79457 30.4685 5.85513 30.3801 5.9313 30.3062L15.6813 20.5562C15.8378 20.4389 16.0313 20.3819 16.2264 20.3958C16.4215 20.4097 16.605 20.4934 16.7433 20.6317C16.8816 20.77 16.9654 20.9536 16.9793 21.1487C16.9931 21.3437 16.9362 21.5373 16.8188 21.6938L8.47036 30.0625H26.0001C30.9546 30.0571 35.7048 28.0865 39.2082 24.5831C42.7116 21.0797 44.6822 16.3296 44.6876 11.375C44.6876 11.1595 44.7732 10.9528 44.9255 10.8005C45.0779 10.6481 45.2846 10.5625 45.5001 10.5625C45.7155 10.5625 45.9222 10.6481 46.0746 10.8005C46.227 10.9528 46.3126 11.1595 46.3126 11.375Z" fill="#895F5F"/>
</svg>
