<svg width="40" height="37" viewBox="0 0 40 37" fill="none" xmlns="http://www.w3.org/2000/svg">
<g clip-path="url(#clip0_10_63)">
<path d="M37.519 16.1875H2.48109C2.40927 16.188 2.33848 16.2084 2.274 16.247C2.20953 16.2856 2.15305 16.3416 2.10879 16.4106C2.06452 16.4797 2.03362 16.5601 2.01839 16.6458C2.00317 16.7315 2.00401 16.8203 2.02086 16.9055L5.81442 35.4252C5.90533 35.8148 6.18469 37 7.21594 37H32.7841C33.8192 37 34.0957 35.8137 34.1904 35.4055L37.9782 16.9055C37.9957 16.8203 37.9969 16.7314 37.982 16.6455C37.967 16.5596 37.9363 16.479 37.892 16.4098C37.8477 16.3406 37.7911 16.2846 37.7265 16.2461C37.6619 16.2076 37.5909 16.1875 37.519 16.1875ZM33.2765 35.1072C33.1042 35.8438 32.9262 35.8438 32.7841 35.8438H7.21594C7.07484 35.8438 6.89776 35.8438 6.72825 35.1257L3.0881 17.3438H36.9129L33.2765 35.1072Z" fill="#895F5F"/>
<path d="M17.6326 32.375C17.7582 32.375 17.8786 32.3141 17.9674 32.2057C18.0562 32.0972 18.1061 31.9502 18.1061 31.7969V21.3906C18.1061 21.2373 18.0562 21.0902 17.9674 20.9818C17.8786 20.8734 17.7582 20.8125 17.6326 20.8125C17.507 20.8125 17.3866 20.8734 17.2978 20.9818C17.209 21.0902 17.1591 21.2373 17.1591 21.3906V31.7969C17.1591 31.9502 17.209 32.0972 17.2978 32.2057C17.3866 32.3141 17.507 32.375 17.6326 32.375ZM11.0029 32.375C11.0695 32.3752 11.1354 32.3582 11.1963 32.3251C11.2572 32.292 11.3117 32.2436 11.3562 32.183C11.4008 32.1224 11.4343 32.051 11.4547 31.9735C11.475 31.896 11.4818 31.8142 11.4744 31.7333L10.5275 21.327C10.5137 21.1746 10.4508 21.0352 10.3528 20.9393C10.2548 20.8435 10.1296 20.7991 10.0047 20.816C9.87992 20.8328 9.7657 20.9096 9.68721 21.0292C9.60871 21.1489 9.57237 21.3018 9.58619 21.4542L10.5332 31.8605C10.546 32.0017 10.6009 32.1323 10.6876 32.2272C10.7742 32.3221 10.8865 32.3747 11.0029 32.375ZM23.3144 32.375C23.44 32.375 23.5604 32.3141 23.6492 32.2057C23.738 32.0972 23.7879 31.9502 23.7879 31.7969V21.3906C23.7879 21.2373 23.738 21.0902 23.6492 20.9818C23.5604 20.8734 23.44 20.8125 23.3144 20.8125C23.1888 20.8125 23.0684 20.8734 22.9796 20.9818C22.8908 21.0902 22.8409 21.2373 22.8409 21.3906V31.7969C22.8409 31.9502 22.8908 32.0972 22.9796 32.2057C23.0684 32.3141 23.1888 32.375 23.3144 32.375ZM28.9432 32.3715L28.9972 32.375C29.1136 32.3747 29.2258 32.3221 29.3124 32.2272C29.3991 32.1323 29.4541 32.0017 29.4669 31.8605L30.4138 21.4542C30.4277 21.3018 30.3913 21.1489 30.3128 21.0292C30.2343 20.9096 30.1201 20.8328 29.9953 20.816C29.8705 20.7991 29.7453 20.8435 29.6472 20.9393C29.5492 21.0352 29.4864 21.1746 29.4725 21.327L28.5256 31.7333C28.5117 31.8855 28.548 32.0382 28.6262 32.1579C28.7045 32.2776 28.8185 32.3544 28.9432 32.3715ZM32.7841 13.875C32.8748 13.8749 32.9636 13.8431 33.0399 13.7832C33.1162 13.7233 33.1768 13.6379 33.2145 13.5372C33.2522 13.4365 33.2654 13.3246 33.2526 13.215C33.2397 13.1054 33.2014 13.0026 33.1421 12.9188L24.1458 0.200029C24.0621 0.0919525 23.9474 0.0274653 23.8257 0.0199846C23.704 0.0125039 23.5846 0.0626057 23.4924 0.159866C23.4002 0.257127 23.3422 0.394057 23.3306 0.542168C23.319 0.690279 23.3545 0.838166 23.4299 0.955061L32.4261 13.6738C32.4704 13.7369 32.5253 13.7876 32.587 13.8223C32.6488 13.8571 32.7161 13.875 32.7841 13.875ZM16.9849 0.130654C16.8876 0.0338623 16.7629 -0.0118576 16.6381 0.00353445C16.5133 0.0189265 16.3986 0.0941721 16.3191 0.212748L7.79641 12.9315C7.75423 12.9898 7.72212 13.0579 7.70201 13.1318C7.6819 13.2056 7.6742 13.2836 7.67937 13.3612C7.68454 13.4387 7.70249 13.5142 7.73212 13.5831C7.76175 13.6519 7.80247 13.7128 7.85182 13.762C7.90118 13.8112 7.95817 13.8478 8.01937 13.8694C8.08057 13.8911 8.14472 13.8975 8.20798 13.8882C8.27125 13.8789 8.33232 13.8541 8.38755 13.8152C8.44277 13.7764 8.49101 13.7244 8.52937 13.6622L17.0521 0.943498C17.1314 0.824777 17.1688 0.672495 17.1562 0.520092C17.1436 0.36769 17.082 0.227625 16.9849 0.130654ZM39.4129 11.5625H35.625C35.4994 11.5625 35.379 11.6234 35.2902 11.7318C35.2014 11.8402 35.1515 11.9873 35.1515 12.1406C35.1515 12.294 35.2014 12.441 35.2902 12.5494C35.379 12.6578 35.4994 12.7187 35.625 12.7187H39.4129C39.5385 12.7187 39.6589 12.6578 39.7477 12.5494C39.8365 12.441 39.8864 12.294 39.8864 12.1406C39.8864 11.9873 39.8365 11.8402 39.7477 11.7318C39.6589 11.6234 39.5385 11.5625 39.4129 11.5625ZM12.8977 12.7187H28.0493C28.1748 12.7187 28.2953 12.6578 28.3841 12.5494C28.4729 12.441 28.5227 12.294 28.5227 12.1406C28.5227 11.9873 28.4729 11.8402 28.3841 11.7318C28.2953 11.6234 28.1748 11.5625 28.0493 11.5625H12.8977C12.7722 11.5625 12.6517 11.6234 12.5629 11.7318C12.4741 11.8402 12.4243 11.9873 12.4243 12.1406C12.4243 12.294 12.4741 12.441 12.5629 12.5494C12.6517 12.6578 12.7722 12.7187 12.8977 12.7187ZM0.587132 12.7187H5.32198C5.44756 12.7187 5.56799 12.6578 5.65679 12.5494C5.74558 12.441 5.79547 12.294 5.79547 12.1406C5.79547 11.9873 5.74558 11.8402 5.65679 11.7318C5.56799 11.6234 5.44756 11.5625 5.32198 11.5625H0.587132C0.461556 11.5625 0.341124 11.6234 0.252328 11.7318C0.163532 11.8402 0.113647 11.9873 0.113647 12.1406C0.113647 12.294 0.163532 12.441 0.252328 12.5494C0.341124 12.6578 0.461556 12.7187 0.587132 12.7187Z" fill="#895F5F"/>
</g>
<defs>
<clipPath id="clip0_10_63">
<rect width="40" height="37" fill="white"/>
</clipPath>
</defs>
</svg>
