<svg width="36" height="36" viewBox="0 0 36 36" fill="none" xmlns="http://www.w3.org/2000/svg">
<g clip-path="url(#clip0_175_130)">
<path fill-rule="evenodd" clip-rule="evenodd" d="M0.90828 -0.000358637C0.789395 -0.00145242 0.671472 0.0210193 0.561322 0.0657586C0.451171 0.110498 0.350976 0.176618 0.266525 0.2603C0.182073 0.343982 0.115038 0.443567 0.0692918 0.553303C0.0235457 0.663039 -5.03071e-06 0.780752 8.06053e-10 0.899641L8.06053e-10 26.204C2.87824e-05 26.3756 0.0490767 26.5435 0.141367 26.6881C0.233657 26.8327 0.365345 26.9479 0.52092 27.0202L11.9207 32.3158C12.0395 32.371 12.169 32.3997 12.3001 32.3997C12.4312 32.3997 12.5607 32.371 12.6796 32.3158L17.825 29.9261L16.511 28.5516L12.8326 30.2602L12.8081 25.942C12.4511 25.9982 12.0902 26.0267 11.7288 26.0273L11.7526 30.253L1.8 25.6291V2.31012L11.619 6.87132L11.6424 10.9494C12.001 10.8958 12.3635 10.8666 12.7217 10.8497L12.7001 7.002L23.0227 2.20644L23.1437 23.3593L24.2294 24.3976L24.102 2.079L34.2 6.76944V30.0892L26.3848 26.4589L28.8169 28.7849C29.3098 29.3022 29.8912 29.7482 30.3588 30.2897L34.7209 32.3161C35.3174 32.593 36 32.1574 36 31.4996V6.19524C36 6.02371 35.9509 5.85576 35.8586 5.71117C35.7663 5.56658 35.6347 5.45137 35.4791 5.37912L24.0793 0.0835214C23.9605 0.0282579 23.831 -0.000374914 23.6999 -0.000374914C23.5688 -0.000374914 23.4393 0.0282579 23.3204 0.0835214L12.2998 5.20272L1.27908 0.0835214C1.16286 0.0294776 1.03644 0.000879662 0.90828 -0.000358637Z" fill="#895F5F"/>
<path d="M12.8059 12.2879C12.1154 12.2951 11.4109 12.4196 10.7233 12.6655C10.6476 12.6926 10.58 12.7384 10.5268 12.7986C10.4736 12.8588 10.4364 12.9315 10.4188 13.0099C10.4012 13.0883 10.4037 13.1699 10.4261 13.2471C10.4485 13.3243 10.4901 13.3946 10.5469 13.4514L13.6789 16.5834L12.9031 19.0461L10.4393 19.8227L7.30727 16.6907C7.25045 16.6338 7.18018 16.5923 7.10299 16.5699C7.0258 16.5475 6.9442 16.545 6.86578 16.5626C6.78736 16.5802 6.71466 16.6173 6.65445 16.6706C6.59424 16.7238 6.54847 16.7914 6.52139 16.8671C5.73479 19.0677 6.19199 21.4376 7.74359 22.9896C9.43703 24.683 11.992 25.0056 14.2171 24.0689L25.0009 35.3441C26.0251 36.3683 27.9306 36.122 28.9548 35.0982C29.9786 34.0744 30.2241 32.1685 29.1999 31.1447L17.9255 20.3605C18.8622 18.1353 18.5389 15.5808 16.8455 13.8877C15.7784 12.8207 14.3251 12.2713 12.8063 12.2879H12.8059ZM26.7973 32.04C27.036 32.04 27.2649 32.1348 27.4337 32.3036C27.6025 32.4724 27.6973 32.7013 27.6973 32.94C27.6973 33.1787 27.6025 33.4076 27.4337 33.5764C27.2649 33.7452 27.036 33.84 26.7973 33.84C26.5586 33.84 26.3297 33.7452 26.1609 33.5764C25.9921 33.4076 25.8973 33.1787 25.8973 32.94C25.8973 32.7013 25.9921 32.4724 26.1609 32.3036C26.3297 32.1348 26.5586 32.04 26.7973 32.04Z" fill="#895F5F"/>
</g>
<defs>
<clipPath id="clip0_175_130">
<rect width="36" height="36" fill="white"/>
</clipPath>
</defs>
</svg>
