<svg width="40" height="40" viewBox="0 0 40 40" fill="none" xmlns="http://www.w3.org/2000/svg">
<g clip-path="url(#clip0_131_156)">
<path d="M40.625 20.7467C40.625 9.63109 31.6734 0.625 20.625 0.625C9.57661 0.625 0.625 9.63109 0.625 20.7467C0.625 30.7897 7.93871 39.1143 17.5 40.625V26.5633H12.4194V20.7467H17.5V16.3134C17.5 11.2708 20.4839 8.48545 25.054 8.48545C27.2427 8.48545 29.5315 8.87814 29.5315 8.87814V13.8274H27.0089C24.525 13.8274 23.75 15.3788 23.75 16.9698V20.7467H29.2968L28.4097 26.5633H23.75V40.625C33.3113 39.1143 40.625 30.7897 40.625 20.7467Z" fill="#553E3E"/>
</g>
<defs>
<clipPath id="clip0_131_156">
<rect width="40" height="40" fill="white"/>
</clipPath>
</defs>
</svg>
