<svg width="44" height="44" viewBox="0 0 44 44" fill="none" xmlns="http://www.w3.org/2000/svg">
<path d="M38.7618 12.5715H15.7142M11.5238 12.5715H5.23804M38.7618 33.5238H15.7142M11.5238 33.5238H5.23804M28.2857 23.0476H5.23804M38.7618 23.0476H32.4761M13.619 8.38098C14.1747 8.38098 14.7076 8.60173 15.1005 8.99466C15.4935 9.3876 15.7142 9.92053 15.7142 10.4762V14.6667C15.7142 15.2224 15.4935 15.7553 15.1005 16.1483C14.7076 16.5412 14.1747 16.7619 13.619 16.7619C13.0633 16.7619 12.5304 16.5412 12.1374 16.1483C11.7445 15.7553 11.5238 15.2224 11.5238 14.6667V10.4762C11.5238 9.92053 11.7445 9.3876 12.1374 8.99466C12.5304 8.60173 13.0633 8.38098 13.619 8.38098V8.38098ZM13.619 29.3334C14.1747 29.3334 14.7076 29.5541 15.1005 29.947C15.4935 30.34 15.7142 30.8729 15.7142 31.4286V35.6191C15.7142 36.1748 15.4935 36.7077 15.1005 37.1006C14.7076 37.4936 14.1747 37.7143 13.619 37.7143C13.0633 37.7143 12.5304 37.4936 12.1374 37.1006C11.7445 36.7077 11.5238 36.1748 11.5238 35.6191V31.4286C11.5238 30.8729 11.7445 30.34 12.1374 29.947C12.5304 29.5541 13.0633 29.3334 13.619 29.3334ZM30.3809 18.8572C30.9366 18.8572 31.4695 19.0779 31.8625 19.4709C32.2554 19.8638 32.4761 20.3967 32.4761 20.9524V25.1429C32.4761 25.6986 32.2554 26.2315 31.8625 26.6244C31.4695 27.0174 30.9366 27.2381 30.3809 27.2381C29.8252 27.2381 29.2923 27.0174 28.8993 26.6244C28.5064 26.2315 28.2857 25.6986 28.2857 25.1429V20.9524C28.2857 20.3967 28.5064 19.8638 28.8993 19.4709C29.2923 19.0779 29.8252 18.8572 30.3809 18.8572V18.8572Z" stroke="#553E3E" stroke-width="0.571429" stroke-linecap="round" stroke-linejoin="round"/>
</svg>
