<svg width="62" height="52" viewBox="0 0 62 52" fill="none" xmlns="http://www.w3.org/2000/svg">
<path d="M31.0001 51.3689C30.5556 51.3763 30.1142 51.2929 29.7031 51.1236C29.292 50.9543 28.9199 50.7028 28.6095 50.3845L5.23762 27.0126C3.72347 25.4993 2.53373 23.6931 1.74106 21.7046C0.948392 19.716 0.569438 17.5866 0.627346 15.4467C0.685254 13.3067 1.17881 11.201 2.07786 9.25818C2.97692 7.31537 4.26259 5.57623 5.85637 4.14699C7.38382 2.78746 9.17009 1.75039 11.1081 1.09795C13.046 0.445511 15.0958 0.19115 17.1345 0.350115C21.2767 0.611401 25.1793 2.38258 28.1032 5.32824L31.0001 8.22511L34.4876 4.73762C36.001 3.22347 37.8071 2.03373 39.7957 1.24106C41.7843 0.448391 43.9136 0.0694376 46.0536 0.127346C48.1935 0.185254 50.2992 0.678808 52.242 1.57786C54.1849 2.47692 55.924 3.76259 57.3532 5.35636C58.7128 6.88382 59.7498 8.67009 60.4023 10.6081C61.0547 12.546 61.3091 14.5958 61.1501 16.6345C60.8888 20.7767 59.1176 24.6793 56.172 27.6032L33.3907 50.3845C32.7527 51.0118 31.8949 51.365 31.0001 51.3689ZM16.0939 2.57199C12.8733 2.53027 9.75354 3.69393 7.34699 5.83449C5.98268 7.05876 4.88257 8.54859 4.11399 10.2128C3.34542 11.8769 2.92456 13.6805 2.87717 15.5129C2.82978 17.3454 3.15685 19.1683 3.83838 20.87C4.5199 22.5716 5.54153 24.1163 6.84074 25.4095L30.2126 48.8095C30.4229 49.0156 30.7056 49.1311 31.0001 49.1311C31.2946 49.1311 31.5773 49.0156 31.7876 48.8095L54.597 26.0001C59.9126 20.6845 60.3907 12.1064 55.6657 6.84699C54.4415 5.48268 52.9516 4.38257 51.2875 3.61399C49.6233 2.84542 47.8198 2.42456 45.9873 2.37717C44.1548 2.32977 42.332 2.65685 40.6303 3.33838C38.9286 4.0199 37.3839 5.04153 36.0907 6.34074L31.7876 10.6157C31.6854 10.7212 31.563 10.8051 31.4277 10.8623C31.2924 10.9196 31.147 10.9491 31.0001 10.9491C30.8532 10.9491 30.7078 10.9196 30.5725 10.8623C30.4373 10.8051 30.3149 10.7212 30.2126 10.6157L26.5001 6.90324C23.7388 4.14283 19.9983 2.58594 16.0939 2.57199Z" fill="#895F5F"/>
</svg>
