<svg width="62" height="52" viewBox="0 0 64 55" fill="none" xmlns="http://www.w3.org/2000/svg">
<path d="M57.9596 30.3905L35.1784 53.1717C34.7625 53.5918 34.2676 53.9253 33.722 54.1528C33.1765 54.3804 32.5913 54.4976 32.0002 54.4976C31.4092 54.4976 30.8239 54.3804 30.2784 54.1528C29.7329 53.9253 29.2379 53.5918 28.8221 53.1717L5.45023 29.7998C3.82802 28.1819 2.55286 26.2502 1.70272 24.1226C0.852582 21.9951 0.445336 19.7165 0.505885 17.4262C0.566433 15.1359 1.0935 12.882 2.05486 10.8024C3.01623 8.72271 4.39168 6.86101 6.09711 5.33109C12.6502 -0.603285 23.3377 -0.040785 29.8909 6.54046L32.0002 8.62171L34.7002 5.94984C36.3194 4.33655 38.2475 3.06661 40.369 2.21606C42.4906 1.36551 44.7619 0.951843 47.0471 0.99984C49.3427 1.05584 51.6025 1.58131 53.6872 2.54388C55.772 3.50645 57.6376 4.88573 59.169 6.59671C65.0752 13.1498 64.5409 23.8373 57.9596 30.3905Z" fill="#895F5F"/>
</svg>
