<svg width="40" height="40" viewBox="0 0 40 40" fill="none" xmlns="http://www.w3.org/2000/svg">
<path d="M24.758 28.065C18.028 28.065 12.554 22.59 12.554 15.86C12.554 9.129 18.029 3.653 24.758 3.653C31.487 3.653 36.962 9.129 36.962 15.86C36.962 22.59 31.487 28.065 24.758 28.065ZM24.758 4.533C18.513 4.533 13.433 9.615 13.433 15.861C13.433 22.106 18.513 27.187 24.758 27.187C31.003 27.187 36.083 22.106 36.083 15.861C36.083 9.615 31.003 4.533 24.758 4.533Z" fill="#895F5F"/>
<path d="M34.169 16.3C34.0523 16.3 33.9404 16.2536 33.8579 16.1711C33.7754 16.0886 33.729 15.9767 33.729 15.86C33.729 10.912 29.704 6.886 24.757 6.886C24.6403 6.886 24.5284 6.83964 24.4459 6.75713C24.3634 6.67461 24.317 6.5627 24.317 6.446C24.317 6.32931 24.3634 6.21739 24.4459 6.13487C24.5284 6.05236 24.6403 6.006 24.757 6.006C30.189 6.006 34.608 10.426 34.608 15.859C34.6083 15.9168 34.5971 15.9741 34.5752 16.0276C34.5532 16.0811 34.5209 16.1297 34.4802 16.1707C34.4394 16.2117 34.3909 16.2442 34.3375 16.2664C34.2841 16.2886 34.2268 16.3 34.169 16.3ZM3.47802 36.346C3.38888 36.3458 3.30191 36.3185 3.22863 36.2677C3.15535 36.2169 3.09921 36.1451 3.06766 36.0617C3.03611 35.9783 3.03063 35.8874 3.05195 35.8008C3.07326 35.7142 3.12037 35.6362 3.18702 35.577L16.303 24.029C16.3912 23.9576 16.5035 23.923 16.6166 23.9324C16.7297 23.9418 16.8347 23.9946 16.9098 24.0796C16.9849 24.1646 17.0243 24.2754 17.0197 24.3888C17.015 24.5021 16.9668 24.6094 16.885 24.688L3.76802 36.236C3.68811 36.307 3.58491 36.3461 3.47802 36.346Z" fill="#895F5F"/>
</svg>
