<svg width="44" height="44" viewBox="0 0 44 44" fill="none" xmlns="http://www.w3.org/2000/svg">
<path d="M38.9812 15.6062C38.9188 15.6707 38.844 15.7219 38.7613 15.7569C38.6786 15.7919 38.5898 15.8099 38.5 15.8099C38.4102 15.8099 38.3214 15.7919 38.2387 15.7569C38.156 15.7219 38.0812 15.6707 38.0187 15.6062L32.3125 9.91714V24.7499C32.3125 24.9323 32.2401 25.1072 32.1111 25.2361C31.9822 25.365 31.8073 25.4374 31.625 25.4374C31.4427 25.4374 31.2678 25.365 31.1389 25.2361C31.0099 25.1072 30.9375 24.9323 30.9375 24.7499V9.91714L25.2312 15.6062C25.1688 15.6707 25.094 15.7219 25.0113 15.7569C24.9286 15.7919 24.8398 15.8099 24.75 15.8099C24.6602 15.8099 24.5714 15.7919 24.4887 15.7569C24.406 15.7219 24.3312 15.6707 24.2687 15.6062C24.2043 15.5437 24.1531 15.4689 24.1181 15.3862C24.0831 15.3036 24.065 15.2147 24.065 15.125C24.065 15.0352 24.0831 14.9463 24.1181 14.8637C24.1531 14.781 24.2043 14.7062 24.2687 14.6437L31.1437 7.7687L31.2469 7.68276L31.2984 7.64839L31.3672 7.61401H31.8828L31.9516 7.64839L32.0031 7.68276L32.1062 7.75151L38.9812 14.6265C39.0484 14.6892 39.1019 14.7651 39.1385 14.8493C39.1751 14.9336 39.194 15.0245 39.194 15.1164C39.194 15.2082 39.1751 15.2991 39.1385 15.3834C39.1019 15.4676 39.0484 15.5435 38.9812 15.6062ZM8.25 22.6874H20.625C20.8073 22.6874 20.9822 22.615 21.1111 22.4861C21.2401 22.3572 21.3125 22.1823 21.3125 21.9999C21.3125 21.8176 21.2401 21.6427 21.1111 21.5138C20.9822 21.3849 20.8073 21.3124 20.625 21.3124H8.25C8.06766 21.3124 7.8928 21.3849 7.76386 21.5138C7.63493 21.6427 7.5625 21.8176 7.5625 21.9999C7.5625 22.1823 7.63493 22.3572 7.76386 22.4861C7.8928 22.615 8.06766 22.6874 8.25 22.6874ZM8.25 11.6875H17.875C18.0573 11.6875 18.2322 11.615 18.3611 11.4861C18.4901 11.3572 18.5625 11.1823 18.5625 11C18.5625 10.8176 18.4901 10.6427 18.3611 10.5138C18.2322 10.3849 18.0573 10.3125 17.875 10.3125H8.25C8.06766 10.3125 7.8928 10.3849 7.76386 10.5138C7.63493 10.6427 7.5625 10.8176 7.5625 11C7.5625 11.1823 7.63493 11.3572 7.76386 11.4861C7.8928 11.615 8.06766 11.6875 8.25 11.6875ZM31.625 32.3124H8.25C8.06766 32.3124 7.8928 32.3849 7.76386 32.5138C7.63493 32.6427 7.5625 32.8176 7.5625 32.9999C7.5625 33.1823 7.63493 33.3572 7.76386 33.4861C7.8928 33.615 8.06766 33.6874 8.25 33.6874H31.625C31.8073 33.6874 31.9822 33.615 32.1111 33.4861C32.2401 33.3572 32.3125 33.1823 32.3125 32.9999C32.3125 32.8176 32.2401 32.6427 32.1111 32.5138C31.9822 32.3849 31.8073 32.3124 31.625 32.3124Z" fill="#895F5F"/>
</svg>
