<svg width="40" height="40" viewBox="0 0 40 40" fill="none" xmlns="http://www.w3.org/2000/svg">
<path d="M35.8884 12.9718C35.9138 13.3656 35.9138 13.7594 35.9138 14.1531C35.9138 26.1624 27.6651 40 12.5889 40C7.94417 40 3.62947 38.5093 0 35.9219C0.659924 36.0062 1.29438 36.0344 1.9797 36.0344C5.81213 36.0344 9.34011 34.6 12.1574 32.1532C8.55331 32.0688 5.53299 29.4531 4.49236 25.8531C5.00002 25.9374 5.5076 25.9937 6.04065 25.9937C6.77667 25.9937 7.51276 25.8812 8.198 25.6844C4.44166 24.8406 1.6243 21.1844 1.6243 16.7687V16.6563C2.71564 17.3313 3.98478 17.7531 5.32986 17.8093C3.12173 16.178 1.67508 13.3937 1.67508 10.2437C1.67508 8.55622 2.0811 7.00934 2.79181 5.65933C6.82737 11.1718 12.8934 14.7718 19.6954 15.1656C19.5685 14.4906 19.4923 13.7875 19.4923 13.0844C19.4923 8.07808 23.1472 4 27.6903 4C30.0507 4 32.1827 5.09687 33.6802 6.86875C35.533 6.47502 37.3096 5.7156 38.8833 4.675C38.2741 6.78443 36.9797 8.5563 35.2792 9.68123C36.929 9.48445 38.528 8.97808 40 8.27503C38.8834 10.075 37.4874 11.678 35.8884 12.9718Z" fill="#553E3E"/>
</svg>
