<svg width="40" height="40" viewBox="0 0 40 40" fill="none" xmlns="http://www.w3.org/2000/svg">
<path d="M20 21.456C14.873 21.456 10.702 17.285 10.702 12.158C10.702 7.031 14.873 2.861 20 2.861C25.127 2.861 29.298 7.032 29.298 12.159C29.298 17.286 25.127 21.456 20 21.456ZM20 3.744C15.361 3.744 11.586 7.519 11.586 12.158C11.586 16.797 15.361 20.572 20 20.572C24.639 20.572 28.414 16.797 28.414 12.158C28.414 7.519 24.639 3.744 20 3.744ZM36.828 37.139H3.17198C3.05475 37.139 2.94233 37.0924 2.85944 37.0095C2.77655 36.9267 2.72998 36.8142 2.72998 36.697V30.99C3.13298 23.741 9.66398 23.304 9.72998 23.3L30.243 23.299C30.333 23.303 36.866 23.741 37.268 30.965L37.269 36.697C37.2692 36.755 37.258 36.8125 37.236 36.8662C37.2139 36.9199 37.1815 36.9687 37.1405 37.0098C37.0995 37.0509 37.0508 37.0834 36.9971 37.1056C36.9435 37.1278 36.886 37.1391 36.828 37.139ZM3.61398 36.256H36.386V30.99C36.028 24.572 30.457 24.195 30.22 24.182L9.75498 24.183C9.54298 24.196 3.97198 24.593 3.61398 31.014V36.256Z" fill="#895F5F"/>
</svg>
